<?xml version="1.0" encoding="UTF-8"?><svg id="a" xmlns="http://www.w3.org/2000/svg" viewBox="0 0 269.19 39.04"><defs><style>.b{fill:#fff;}</style></defs><g><path class="b" d="M25.19,19.46c-1.19,6.42-5.61,10.66-12.15,10.66C5.65,30.12,0,25.06,0,15.38S5.06,0,13.13,0c7.05,0,11.51,4.5,12.06,10.2h-5.9c-.81-3.19-3.31-5.1-6.12-5.1-4.89,0-7.18,3.78-7.18,9.94s2.29,9.94,6.88,9.94c3.48,0,5.61-2,6.41-5.52h5.9Z"/><path class="b" d="M28.12,29.14V8.24h5.18v2.51c1.83-2.8,3.95-3.06,6.2-3.06h.72v5.65c-.51-.08-1.02-.13-1.53-.13-3.4,0-5.06,1.7-5.06,5.06v10.88h-5.52Z"/><path class="b" d="M56.67,26.38c-.76,1.87-3.06,2.97-5.65,2.97-4.38,0-7.65-2.97-7.65-7.56V8.24h5.52v12.74c0,2.59,1.19,3.91,3.53,3.91,2.51,0,4.25-1.66,4.25-3.91V8.24h5.52V29.69c0,5.91-4.25,9.35-9.6,9.35-6.12,0-9.22-3.36-9.22-8.75h5.14c0,2.46,1.44,3.99,4.33,3.99,2,0,3.82-1.74,3.82-4.5v-3.4Z"/><path class="b" d="M66.31,39.04V8.24h5.31l.04,2.55c1.32-2.12,3.27-3.1,5.82-3.1,5.27,0,9.05,4.16,9.05,11.21,0,6.33-3.19,10.79-8.58,10.79-2.59,0-4.63-1.06-6.2-3.27v12.62h-5.44Zm14.61-20.52c0-3.74-1.95-6.33-4.72-6.33s-4.67,2.46-4.67,5.99c0,4.54,1.57,6.8,4.63,6.8,3.23,0,4.76-2.17,4.76-6.46Z"/><path class="b" d="M101.99,15.38h5.14v5.95c0,4.42-2.55,8.37-8.45,8.37s-8.54-3.91-8.54-8.41V2.59h5.44v5.65h11.55v3.91h-11.55v8.58c0,2.63,.93,4.16,3.19,4.16s3.23-1.49,3.23-4.08v-5.44Z"/><path class="b" d="M110.53,18.69c0-6.63,4.12-11,10.75-11s10.62,4.33,10.62,11-4.12,11-10.62,11-10.75-4.5-10.75-11Zm15.8,0c0-4.25-1.7-6.33-5.05-6.33s-5.06,2.08-5.06,6.33,1.7,6.37,5.06,6.37,5.05-2.12,5.05-6.37Z"/><path class="b" d="M135.38,29.14V.93h12.45c5.52,0,9.05,4.04,9.05,9.13s-3.53,8.84-9.05,8.84h-6.54v10.24h-5.9Zm11.51-15.04c3.4,0,4.8-1.74,4.8-4.21,0-2.34-1.4-4.08-4.8-4.08h-5.61V14.1h5.61Z"/><path class="b" d="M159.34,18.69c0-6.63,4.12-11,10.75-11s10.62,4.33,10.62,11-4.12,11-10.62,11-10.75-4.5-10.75-11Zm15.8,0c0-4.25-1.7-6.33-5.06-6.33s-5.06,2.08-5.06,6.33,1.7,6.37,5.06,6.37,5.06-2.12,5.06-6.37Z"/><path class="b" d="M196.17,15.38h5.14v5.95c0,4.42-2.55,8.37-8.45,8.37s-8.54-3.91-8.54-8.41V2.59h5.44v5.65h11.55v3.91h-11.55v8.58c0,2.63,.93,4.16,3.19,4.16s3.23-1.49,3.23-4.08v-5.44Z"/><path class="b" d="M218.26,29.14c-.17-.51-.3-1.23-.34-1.87-1.32,1.44-3.53,2.42-6.33,2.42-4.76,0-6.97-2.34-6.97-5.73,0-6.03,4.04-6.71,9.6-7.48,2.76-.38,3.53-.93,3.53-2.38,0-1.36-1.36-2.17-3.53-2.17-2.51,0-3.53,1.23-3.78,3.1h-5.14c.09-4.33,2.46-7.35,9.18-7.35s8.92,2.97,8.92,8.24v13.21h-5.14Zm-.38-10.24c-.55,.55-1.53,.85-3.57,1.23-3.14,.59-4.16,1.49-4.16,3.27,0,1.57,.93,2.34,2.68,2.34,2.85,0,4.97-2.08,5.01-4.55l.04-2.29Z"/><path class="b" d="M239.29,15.38h5.14v5.95c0,4.42-2.55,8.37-8.45,8.37s-8.54-3.91-8.54-8.41V2.59h5.44v5.65h11.55v3.91h-11.55v8.58c0,2.63,.93,4.16,3.19,4.16s3.23-1.49,3.23-4.08v-5.44Z"/><path class="b" d="M247.83,18.69c0-6.63,4.12-11,10.75-11s10.62,4.33,10.62,11-4.12,11-10.62,11-10.75-4.5-10.75-11Zm15.8,0c0-4.25-1.7-6.33-5.06-6.33s-5.06,2.08-5.06,6.33,1.7,6.37,5.06,6.37,5.06-2.12,5.06-6.37Z"/></g><ellipse class="b" cx="121.22" cy="18.69" rx="3.57" ry="3.95"/><ellipse class="b" cx="258.51" cy="18.69" rx="3.57" ry="3.95"/></svg>